<svg xmlns="http://www.w3.org/2000/svg" xmlns:xlink="http://www.w3.org/1999/xlink" width="500" zoomAndPan="magnify" viewBox="0 0 375 374.999991" height="500" preserveAspectRatio="xMidYMid meet" version="1.0"><defs><g/><clipPath id="d05be7e89c"><path d="M 266.308594 151.90625 L 337.558594 151.90625 L 337.558594 223.15625 L 266.308594 223.15625 Z M 266.308594 151.90625 " clip-rule="nonzero"/></clipPath></defs><g fill="#f4f6fc" fill-opacity="1"><g transform="translate(56.971554, 214.499986)"><g><path d="M 15.480469 0 L 15.480469 -20.304688 C 15.480469 -22.679688 14.976562 -24.625 14.183594 -26.425781 C 14.542969 -26.496094 14.832031 -26.566406 15.191406 -26.566406 C 19.871094 -26.566406 24.769531 -22.03125 24.769531 -13.753906 L 24.769531 0 L 38.089844 0 L 38.089844 -15.910156 C 38.089844 -23.617188 32.113281 -30.382812 24.695312 -30.382812 C 19.871094 -30.382812 19.296875 -29.808594 15.625 -29.808594 C 12.742188 -29.808594 11.160156 -31.535156 11.160156 -35.0625 C 11.160156 -40.105469 16.054688 -42.695312 19.007812 -42.695312 C 25.414062 -42.695312 27.503906 -38.160156 33.550781 -38.160156 C 34.847656 -38.160156 35.929688 -38.519531 36.648438 -39.023438 L 36.648438 -52.558594 L 26.28125 -52.558594 C 12.097656 -52.558594 11.519531 -39.167969 7.054688 -39.167969 C 5.328125 -39.167969 5.472656 -40.609375 5.472656 -42.046875 C 5.472656 -50.6875 16.199219 -53.207031 16.199219 -64.585938 C 16.199219 -68.6875 13.03125 -72 9.863281 -72 L 2.160156 -72 L 2.160156 0 Z M 15.480469 0 "/></g></g></g><g fill="#f4f6fc" fill-opacity="1"><g transform="translate(95.779531, 214.499986)"><g><path d="M 1.800781 -10.152344 C 1.800781 -3.886719 7.414062 0.0703125 14.113281 0.0703125 C 15.40625 0.0703125 16.128906 0 17.425781 0 L 17.425781 -12.238281 C 16.847656 -13.105469 15.40625 -13.390625 14.617188 -13.390625 C 9.71875 -13.390625 9.574219 -7.777344 6.480469 -7.777344 C 5.113281 -7.777344 4.320312 -8.929688 4.320312 -10.296875 C 4.320312 -16.128906 15.121094 -21.816406 15.121094 -30.742188 L 15.121094 -72 L 1.800781 -72 Z M 1.800781 -10.152344 "/></g></g></g><g fill="#f4f6fc" fill-opacity="1"><g transform="translate(113.203526, 214.499986)"><g><path d="M 1.945312 0 L 15.191406 0 L 15.191406 -52.558594 L 1.945312 -52.558594 Z M 0.863281 -65.59375 C 0.863281 -61.199219 4.390625 -57.671875 8.710938 -57.671875 C 13.105469 -57.671875 16.632812 -61.199219 16.632812 -65.59375 C 16.632812 -69.910156 13.105469 -73.441406 8.710938 -73.441406 C 4.390625 -73.441406 0.863281 -69.910156 0.863281 -65.59375 Z M 0.863281 -65.59375 "/></g></g></g><g fill="#f4f6fc" fill-opacity="1"><g transform="translate(130.699516, 214.499986)"><g><path d="M 15.480469 19.441406 L 15.480469 -0.214844 C 17.0625 0.792969 18.9375 1.441406 21.023438 1.441406 C 32.398438 1.441406 38.375 -13.464844 38.375 -25.199219 C 38.375 -39.960938 30.816406 -52.558594 19.007812 -52.558594 L 2.160156 -52.558594 L 2.160156 19.441406 Z M 5.472656 -42.046875 C 5.472656 -43.054688 5.976562 -43.992188 6.984375 -43.992188 C 8.929688 -43.992188 10.296875 -39.238281 15.121094 -39.238281 C 21.816406 -39.238281 23.976562 -44.136719 28.007812 -44.136719 C 29.519531 -44.136719 30.601562 -42.695312 30.601562 -41.183594 C 30.601562 -35.710938 23.183594 -27.9375 23.183594 -19.222656 C 23.183594 -15.121094 24.910156 -12.097656 24.910156 -7.992188 C 24.910156 -4.464844 22.96875 -1.945312 20.160156 -1.945312 C 17.929688 -1.945312 16.199219 -3.527344 15.480469 -6.121094 L 15.480469 -20.304688 C 15.480469 -30.671875 5.472656 -33.984375 5.472656 -42.046875 Z M 5.472656 -42.046875 "/></g></g></g><g fill="#f4f6fc" fill-opacity="1"><g transform="translate(170.5155, 214.499986)"><g><path d="M 15.480469 19.441406 L 15.480469 -0.214844 C 17.0625 0.792969 18.9375 1.441406 21.023438 1.441406 C 32.398438 1.441406 38.375 -13.464844 38.375 -25.199219 C 38.375 -39.960938 30.816406 -52.558594 19.007812 -52.558594 L 2.160156 -52.558594 L 2.160156 19.441406 Z M 5.472656 -42.046875 C 5.472656 -43.054688 5.976562 -43.992188 6.984375 -43.992188 C 8.929688 -43.992188 10.296875 -39.238281 15.121094 -39.238281 C 21.816406 -39.238281 23.976562 -44.136719 28.007812 -44.136719 C 29.519531 -44.136719 30.601562 -42.695312 30.601562 -41.183594 C 30.601562 -35.710938 23.183594 -27.9375 23.183594 -19.222656 C 23.183594 -15.121094 24.910156 -12.097656 24.910156 -7.992188 C 24.910156 -4.464844 22.96875 -1.945312 20.160156 -1.945312 C 17.929688 -1.945312 16.199219 -3.527344 15.480469 -6.121094 L 15.480469 -20.304688 C 15.480469 -30.671875 5.472656 -33.984375 5.472656 -42.046875 Z M 5.472656 -42.046875 "/></g></g></g><g fill="#f4f6fc" fill-opacity="1"><g transform="translate(210.331484, 214.499986)"><g><path d="M 16.632812 1.441406 C 27.070312 1.441406 35.785156 -4.824219 35.785156 -15.335938 C 35.785156 -31.175781 6.984375 -35.136719 6.984375 -43.34375 C 6.984375 -44.710938 7.921875 -45.863281 9.359375 -45.863281 C 15.480469 -45.863281 18.214844 -38.878906 24.984375 -38.878906 C 30.167969 -38.878906 33.910156 -43.558594 33.910156 -48.671875 C 33.910156 -50.183594 33.550781 -51.550781 32.832031 -52.558594 L 14.761719 -52.558594 C 6.335938 -52.558594 1.078125 -44.0625 1.078125 -37.007812 C 1.078125 -17.855469 28.511719 -16.273438 28.511719 -7.34375 C 28.511719 -5.039062 26.566406 -3.238281 24.265625 -3.238281 C 18.574219 -3.238281 13.175781 -16.558594 4.894531 -16.558594 C 3.382812 -16.558594 2.449219 -16.273438 1.078125 -15.40625 L 1.078125 -4.105469 C 4.320312 -1.222656 10.871094 1.441406 16.632812 1.441406 Z M 16.632812 1.441406 "/></g></g></g><g clip-path="url(#d05be7e89c)"><path fill="#ffffff" d="M 286.710938 223.15625 L 286.710938 219.75 L 279.910156 219.75 L 279.910156 212.953125 L 273.113281 212.953125 L 273.113281 206.15625 L 269.722656 206.15625 L 269.722656 199.359375 L 266.316406 199.359375 L 266.316406 175.703125 L 269.722656 175.703125 L 269.722656 168.90625 L 273.113281 168.90625 L 273.113281 162.109375 L 279.910156 162.109375 L 279.910156 155.3125 L 286.710938 155.3125 L 286.710938 151.90625 L 317.160156 151.90625 L 317.160156 155.3125 L 323.957031 155.3125 L 323.957031 162.109375 L 330.769531 162.109375 L 330.769531 168.90625 L 334.160156 168.90625 L 334.160156 175.703125 L 337.554688 175.703125 L 337.554688 199.359375 L 334.160156 199.359375 L 334.160156 206.15625 L 330.769531 206.15625 L 330.769531 212.953125 L 323.957031 212.953125 L 323.957031 219.75 L 317.160156 219.75 L 317.160156 223.15625 Z M 286.710938 223.15625 " fillOpacity="1" fillRule="nonzero"/></g><path fill="#000000" d="M 332.523438 177.339844 L 332.523438 170.542969 L 329.132812 170.542969 L 329.132812 163.746094 L 322.320312 163.746094 L 322.320312 156.933594 L 315.507812 156.933594 L 315.507812 153.542969 L 288.320312 153.542969 L 288.320312 156.949219 L 281.507812 156.949219 L 281.507812 163.746094 L 274.753906 163.746094 L 274.753906 170.542969 L 271.347656 170.542969 L 271.347656 177.339844 L 267.957031 177.339844 L 267.957031 197.734375 L 271.363281 197.734375 L 271.363281 204.53125 L 274.769531 204.53125 L 274.769531 211.328125 L 281.566406 211.328125 L 281.566406 218.125 L 288.375 218.125 L 288.375 221.53125 L 315.550781 221.53125 L 315.550781 218.125 L 322.363281 218.125 L 322.363281 211.328125 L 329.175781 211.328125 L 329.175781 204.53125 L 332.566406 204.53125 L 332.566406 197.734375 L 335.972656 197.734375 L 335.972656 177.339844 Z M 332.523438 177.339844 " fill-opacity="1" fillRule="nonzero"/><path fill="#8e65fb" d="M 325.726562 177.339844 L 325.726562 170.542969 L 322.320312 170.542969 L 322.320312 163.746094 L 315.507812 163.746094 L 315.507812 160.339844 L 288.320312 160.339844 L 288.320312 163.746094 L 281.507812 163.746094 L 281.507812 170.542969 L 278.160156 170.542969 L 278.160156 177.339844 L 274.753906 177.339844 L 274.753906 197.734375 L 278.160156 197.734375 L 278.160156 204.53125 L 281.550781 204.53125 L 281.550781 211.328125 L 288.363281 211.328125 L 288.363281 214.734375 L 315.550781 214.734375 L 315.550781 211.328125 L 322.363281 211.328125 L 322.363281 204.53125 L 325.769531 204.53125 L 325.769531 197.734375 L 329.175781 197.734375 L 329.175781 177.339844 Z M 325.726562 177.339844 " fillOpacity="1" fillRule="nonzero"/><path fill="#f4f6fc" d="M 313.828125 184.136719 L 310.433594 184.136719 L 310.433594 177.339844 L 300.246094 177.339844 L 300.246094 170.542969 L 290.042969 170.542969 L 290.042969 204.515625 L 300.246094 204.515625 L 300.246094 197.71875 L 310.433594 197.71875 L 310.433594 190.9375 L 317.234375 190.9375 L 317.234375 184.136719 Z M 313.828125 184.136719 " fillOpacity="1" fillRule="nonzero"/></svg>